PathFileType  4	(X/Y/Z) C:\Users\antoi\Documents\MyRepositories\mobilecap\ResultsAnalysis
DataRate	CameraRate	NumFrames	NumMarkers	Units	OrigDataRate	OrigDataStartFrame	OrigNumFrames
100.0	100.0	5	51	mm	100.0	211	240
Frame#	Time	r_knee			r_shank_antsup			r_ankle			r_calc			r_5meta			r_toe			L_knee			L_shank_antsup			L_ankle			L_calc			L_5meta			L_toe			r_sh2			r_sh3			r_sh4			L_sh2			L_sh3			r_thigh1			r_thigh2			r_thigh3			r_thigh4			r_thigh5			L_thigh1			L_thigh2			L_thigh3			L_thigh4			r.ASIS			r.PSIS			L.ASIS			L.PSIS			C7			R_Shoulder			L_Shoulder			R_Sternum			L_Sternum			R_humerus			R_elbow_med			R_elbow_lat			R_forearm			R_wrist_radius			R_wrist_ulna			L_humerus			L_elbow_med			L_elbow_lat			L_forearm			L_wrist_radius			L_wrist_ulna			R_HJC			L_HJC			R_HJC_reg			L_HJC_reg			
		X1	Y1	Z1	X2	Y2	Z2	X3	Y3	Z3	X4	Y4	Z4	X5	Y5	Z5	X6	Y6	Z6	X7	Y7	Z7	X8	Y8	Z8	X9	Y9	Z9	X10	Y10	Z10	X11	Y11	Z11	X12	Y12	Z12	X13	Y13	Z13	X14	Y14	Z14	X15	Y15	Z15	X16	Y16	Z16	X17	Y17	Z17	X18	Y18	Z18	X19	Y19	Z19	X20	Y20	Z20	X21	Y21	Z21	X22	Y22	Z22	X23	Y23	Z23	X24	Y24	Z24	X25	Y25	Z25	X26	Y26	Z26	X27	Y27	Z27	X28	Y28	Z28	X29	Y29	Z29	X30	Y30	Z30	X31	Y31	Z31	X32	Y32	Z32	X33	Y33	Z33	X34	Y34	Z34	X35	Y35	Z35	X36	Y36	Z36	X37	Y37	Z37	X38	Y38	Z38	X39	Y39	Z39	X40	Y40	Z40	X41	Y41	Z41	X42	Y42	Z42	X43	Y43	Z43	X44	Y44	Z44	X45	Y45	Z45	X46	Y46	Z46	X47	Y47	Z47	X48	Y48	Z48	X49	Y49	Z49	X50	Y50	Z50	X51	Y51	Z51	

211	2.10000000	-212.58889	820.79818	-438.08643	-174.46943	758.73134	-429.30120	-227.87546	417.75246	-362.90225	-284.24324	407.04159	-418.66198	-159.31747	323.71561	-309.30179	-90.01931	337.53624	-340.36679	-173.40316	812.59291	-901.79394	-132.08292	732.89347	-931.67177	-156.58111	413.85927	-955.55483	-202.35508	408.20249	-884.04704	-98.98364	307.37150	-1009.51273	-34.32155	322.20298	-984.97507	-194.25033	654.42900	-384.26648	-255.25163	767.54050	-422.39739	-266.77779	656.88908	-395.53031	-218.86671	729.42380	-908.95264	-209.04994	610.67103	-938.99310	-172.16110	1137.51006	-483.26307	-169.11551	1028.43225	-463.43279	-277.10763	1018.98475	-451.20037	-285.64988	1135.52088	-468.32307	-224.57729	1007.48297	-433.27715	-219.60023	1081.61470	-898.86214	-174.97614	951.38991	-908.55960	-306.52820	1044.52162	-831.85804	-258.42832	914.15627	-853.25973	-150.32576	1281.72748	-555.59467	-334.39867	1335.90159	-631.41297	-154.88576	1260.17388	-807.18832	-342.15001	1332.88961	-729.77817	-188.43718	1724.88348	-700.60678	-107.59634	1662.73593	-528.65932	-114.28646	1664.91967	-866.81064	-63.76659	1651.64520	-667.85391	-58.52461	1651.11380	-716.88793	-137.31528	1550.06584	-442.11467	-273.76676	1370.07863	-436.94231	-239.76618	1389.08920	-370.17203	-127.69823	1303.44093	-387.93318	-35.89983	1221.37655	-414.08186	-46.05339	1192.97399	-395.44729	-113.23692	1560.99553	-935.43615	-207.67947	1336.05602	-919.69520	-170.24936	1364.83134	-990.92982	-76.65608	1357.76536	-932.10374	47.84985	1326.24910	-859.27521	60.86514	1312.71360	-898.38092	-233.63888	1208.94614	-572.72548	-240.35686	1196.89957	-778.73462	-225.80359	1208.60516	-582.74748	-238.89149	1203.51948	-748.84291	
212	2.11000000	-211.38600	816.97546	-439.88420	-173.11318	754.86353	-431.81858	-227.94275	414.44769	-364.02197	-286.44766	404.31210	-417.57115	-158.80636	320.08939	-311.82023	-90.37320	332.91586	-345.19253	-171.98552	808.66303	-904.10480	-131.15586	729.16183	-933.28793	-159.60208	410.69274	-958.35594	-206.75968	404.61311	-887.66660	-101.91614	304.57491	-1012.31058	-37.59008	318.49838	-986.51926	-192.87119	650.67930	-386.39400	-253.80828	764.31395	-423.32107	-265.68834	653.70683	-396.04423	-218.39374	726.99443	-912.51394	-209.55925	608.14774	-942.81361	-172.08625	1133.57957	-485.25494	-168.17212	1024.65277	-464.97557	-276.14210	1014.98288	-451.62293	-285.45980	1131.26421	-468.51112	-223.33225	1003.52681	-434.16892	-217.87991	1077.84966	-901.93015	-173.05071	947.52765	-910.48896	-305.70726	1040.72853	-835.85414	-257.56471	910.29376	-857.22220	-152.18752	1278.66701	-556.40325	-335.52222	1333.10914	-634.33036	-154.98037	1257.59643	-808.43484	-342.33614	1330.42782	-732.57013	-187.49042	1720.52178	-702.04443	-108.11996	1658.78269	-529.44386	-113.11652	1660.93823	-867.72494	-63.26692	1647.19433	-668.39044	-57.99130	1646.47810	-717.45531	-139.84722	1545.34405	-443.19019	-278.93323	1366.92532	-439.99054	-245.16860	1386.06479	-372.69135	-133.50196	1300.16911	-389.65225	-41.76351	1217.77905	-414.87808	-52.40189	1189.30498	-396.75168	-112.57843	1556.62639	-937.16306	-207.15950	1332.30767	-922.64149	-170.08969	1361.33977	-993.91086	-76.11922	1354.34854	-935.16400	48.22854	1322.45348	-862.35254	61.27726	1308.90105	-901.20685	-235.57450	1206.02390	-574.72245	-240.46723	1194.33125	-780.80351	-227.68754	1205.36378	-584.54770	-239.23573	1200.81932	-751.01677	
213	2.12000000	-209.90365	812.23508	-441.36996	-171.32248	749.87083	-434.22077	-228.44447	410.13449	-365.28894	-289.16975	400.77636	-416.56431	-158.79468	315.30404	-314.87179	-91.29671	327.18419	-350.59963	-170.78971	803.85417	-906.41556	-130.77777	724.34998	-934.95561	-163.24087	406.56383	-960.57364	-211.60397	399.80139	-890.79878	-105.26636	300.80836	-1014.96849	-41.34209	313.80458	-987.83822	-191.52473	645.33828	-388.46406	-251.62754	760.35351	-423.88074	-264.19739	649.82119	-396.30824	-218.33222	723.40825	-915.76708	-210.51213	604.40109	-946.20408	-172.03440	1128.84863	-486.55510	-167.45574	1019.91970	-466.12207	-275.46785	1009.81123	-452.52307	-285.39787	1125.90451	-469.63835	-222.53503	998.62834	-435.11233	-215.73186	1073.25777	-904.71299	-171.12711	942.82262	-912.53409	-304.76312	1036.38200	-840.29564	-256.90536	905.69219	-861.04619	-154.86507	1274.81570	-558.16250	-336.67128	1329.18100	-637.46478	-154.90669	1253.61309	-809.80671	-342.36655	1326.85676	-735.57801	-186.58066	1715.39455	-703.51180	-109.19502	1654.23020	-529.92449	-112.22392	1656.09170	-868.56921	-62.93387	1641.92881	-668.95752	-57.16770	1641.23230	-718.28038	-142.77309	1539.84613	-444.16568	-283.83867	1363.13822	-443.20157	-250.54646	1381.96497	-375.39419	-139.15741	1295.98665	-391.37419	-47.38851	1213.35311	-415.66432	-58.46442	1184.84052	-398.01197	-112.47791	1551.65353	-939.21976	-206.60138	1327.68942	-925.52311	-169.78708	1357.06312	-996.93998	-75.56578	1350.16450	-938.01217	48.52847	1318.03922	-865.31550	61.69215	1304.43660	-903.96517	-237.74754	1202.13424	-576.97422	-240.66340	1190.51970	-783.09803	-229.86105	1201.08812	-587.32226	-239.51692	1197.14756	-753.66879	
214	2.13000000	-208.17328	806.47881	-442.61675	-169.17113	743.41781	-436.71651	-229.47436	404.83856	-366.73779	-292.04926	396.17061	-416.08497	-159.46726	309.27220	-318.35747	-92.94441	320.46035	-356.16263	-169.98539	798.23874	-908.81556	-130.93199	718.31735	-936.51861	-167.23379	401.34016	-962.41600	-216.73613	393.77058	-893.54481	-108.94225	296.01125	-1017.51806	-45.45514	308.16804	-989.06516	-190.46849	638.55339	-390.44945	-249.05157	755.52600	-424.29806	-262.55918	645.19847	-396.56989	-218.73614	718.50913	-918.60961	-211.97170	599.36608	-948.72896	-172.37718	1123.58904	-487.16767	-167.20914	1014.43792	-466.90256	-275.18627	1003.56363	-453.81987	-285.71551	1119.56105	-471.58702	-222.29205	992.87196	-436.13231	-213.18495	1067.95102	-907.31462	-169.19947	937.30335	-914.77322	-303.78999	1031.40177	-844.59508	-256.53000	900.31182	-864.75471	-157.48545	1269.83040	-560.07969	-337.69137	1324.12246	-640.81443	-154.66020	1248.33326	-811.16358	-342.33833	1322.25435	-738.83050	-185.85289	1709.54300	-704.73605	-110.81878	1648.94657	-530.12873	-111.43648	1650.39358	-869.55462	-62.72419	1635.87465	-669.54810	-56.32930	1635.19640	-719.05605	-146.14706	1533.71392	-445.05407	-288.49809	1358.56386	-446.59250	-255.93609	1376.94493	-378.11691	-144.63335	1290.97077	-392.99242	-52.72054	1208.17663	-416.49370	-64.22669	1179.65612	-399.22194	-112.79881	1546.09640	-941.33842	-205.89439	1322.08686	-928.20207	-169.48156	1351.99507	-999.72620	-75.08215	1345.17038	-940.57228	48.93888	1312.89972	-868.16904	62.12783	1299.32994	-907.10715	-239.93780	1197.14827	-579.33891	-240.76545	1185.50538	-785.48009	-231.83836	1195.52974	-590.23443	-239.71257	1192.36368	-756.35076	
215	2.14000000	-206.22516	799.77816	-443.97341	-166.92082	735.77401	-439.35883	-231.10778	398.50149	-368.52806	-295.00628	390.45962	-416.34834	-161.03936	301.99361	-322.09073	-95.37150	312.63011	-361.54954	-169.78067	791.54457	-910.97969	-131.52663	711.02322	-937.87825	-171.33305	394.87013	-964.14534	-221.95171	386.66198	-896.09637	-112.91159	290.16433	-1020.00278	-49.79212	301.43100	-990.24819	-189.40834	631.16082	-392.66025	-246.57334	749.60948	-425.02643	-261.16241	639.64335	-397.10455	-219.55224	712.28289	-921.08493	-213.85342	593.07102	-950.77290	-173.23200	1117.72226	-487.57083	-167.42005	1008.21524	-467.45522	-275.35856	996.50607	-455.56584	-286.58266	1112.28649	-474.08467	-222.61974	986.27401	-437.28061	-210.36610	1061.74547	-909.70185	-167.34676	930.84386	-916.92657	-302.85635	1025.68653	-848.68319	-256.51022	894.11428	-868.41001	-159.72986	1263.41127	-561.59433	-338.58017	1317.91562	-644.19879	-154.18918	1241.83969	-812.21316	-342.22018	1316.56158	-742.21627	-185.34814	1702.82500	-705.86606	-112.54216	1642.47191	-530.37146	-110.57484	1643.79297	-870.65833	-62.57759	1629.02901	-669.92538	-55.84989	1628.21841	-719.55705	-149.84472	1527.09117	-445.74312	-292.95902	1352.97979	-449.92714	-261.33765	1371.05230	-380.81740	-150.02116	1285.10179	-394.61014	-57.82361	1202.27853	-417.41507	-69.71009	1173.77267	-400.52528	-113.29666	1539.90774	-943.34584	-205.11655	1315.65069	-930.77478	-169.22146	1346.18927	-1002.30345	-74.65261	1339.40888	-943.07735	49.45372	1307.02885	-870.91465	62.56052	1293.56015	-909.86276	-242.10424	1190.89571	-581.61262	-240.64017	1179.30055	-787.75193	-233.59244	1188.65829	-592.77284	-239.75554	1186.36498	-758.70290	
